<svg width="160" height="196" viewBox="0 0 160 196" fill="none" xmlns="http://www.w3.org/2000/svg">
    <g filter="url(#filter0_d_1_1351)">
        <path d="M87.4062 168.495C103.438 148.883 140 101.351 140 74.6518C140 42.2711 113.125 16 80 16C46.875 16 20 42.2711 20 74.6518C20 101.351 56.5625 148.883 72.5938 168.495C76.4375 173.168 83.5625 173.168 87.4062 168.495ZM80 55.1012C85.3043 55.1012 90.3914 57.161 94.1421 60.8274C97.8929 64.4939 100 69.4666 100 74.6518C100 79.8369 97.8929 84.8097 94.1421 88.4761C90.3914 92.1426 85.3043 94.2024 80 94.2024C74.6957 94.2024 69.6086 92.1426 65.8579 88.4761C62.1071 84.8097 60 79.8369 60 74.6518C60 69.4666 62.1071 64.4939 65.8579 60.8274C69.6086 57.161 74.6957 55.1012 80 55.1012Z" fill="#006FFD"/>
    </g>
    <defs>
        <filter id="filter0_d_1_1351" x="0" y="0" width="160" height="196" filterUnits="userSpaceOnUse" color-interpolation-filters="sRGB">
            <feFlood flood-opacity="0" result="BackgroundImageFix"/>
            <feColorMatrix in="SourceAlpha" type="matrix" values="0 0 0 0 0 0 0 0 0 0 0 0 0 0 0 0 0 0 127 0" result="hardAlpha"/>
            <feOffset dy="4"/>
            <feGaussianBlur stdDeviation="10"/>
            <feComposite in2="hardAlpha" operator="out"/>
            <feColorMatrix type="matrix" values="0 0 0 0 0 0 0 0 0 0 0 0 0 0 0 0 0 0 0.25 0"/>
            <feBlend mode="normal" in2="BackgroundImageFix" result="effect1_dropShadow_1_1351"/>
            <feBlend mode="normal" in="SourceGraphic" in2="effect1_dropShadow_1_1351" result="shape"/>
        </filter>
    </defs>
</svg>
